<svg width="338" height="50" viewBox="0 0 338 50" fill="none" xmlns="http://www.w3.org/2000/svg">
<path d="M72.3564 16.6719V38H69.5732V16.6719H72.3564ZM79.2119 16.6719V18.9863H62.7324V16.6719H79.2119ZM84.6758 15.5V38H81.9658V15.5H84.6758ZM84.0312 29.4746L82.9033 29.4307C82.9131 28.3467 83.0742 27.3457 83.3867 26.4277C83.6992 25.5 84.1387 24.6943 84.7051 24.0107C85.2715 23.3271 85.9453 22.7998 86.7266 22.4287C87.5176 22.0479 88.3916 21.8574 89.3486 21.8574C90.1299 21.8574 90.833 21.9648 91.458 22.1797C92.083 22.3848 92.6152 22.7168 93.0547 23.1758C93.5039 23.6348 93.8457 24.2305 94.0801 24.9629C94.3145 25.6855 94.4316 26.5693 94.4316 27.6143V38H91.707V27.585C91.707 26.7549 91.585 26.0908 91.3408 25.5928C91.0967 25.085 90.7402 24.7188 90.2715 24.4941C89.8027 24.2598 89.2266 24.1426 88.543 24.1426C87.8691 24.1426 87.2539 24.2842 86.6973 24.5674C86.1504 24.8506 85.6768 25.2412 85.2764 25.7393C84.8857 26.2373 84.5781 26.8086 84.3535 27.4531C84.1387 28.0879 84.0312 28.7617 84.0312 29.4746ZM105.066 38.293C103.963 38.293 102.962 38.1074 102.063 37.7363C101.175 37.3555 100.408 36.8232 99.7637 36.1396C99.1289 35.4561 98.6406 34.6455 98.2988 33.708C97.957 32.7705 97.7861 31.7451 97.7861 30.6318V30.0166C97.7861 28.7275 97.9766 27.5801 98.3574 26.5742C98.7383 25.5586 99.2559 24.6992 99.9102 23.9961C100.564 23.293 101.307 22.7607 102.137 22.3994C102.967 22.0381 103.826 21.8574 104.715 21.8574C105.848 21.8574 106.824 22.0527 107.645 22.4434C108.475 22.834 109.153 23.3809 109.681 24.084C110.208 24.7773 110.599 25.5977 110.853 26.5449C111.106 27.4824 111.233 28.5078 111.233 29.6211V30.8369H99.3975V28.625H108.523V28.4199C108.484 27.7168 108.338 27.0332 108.084 26.3691C107.84 25.7051 107.449 25.1582 106.912 24.7285C106.375 24.2988 105.643 24.084 104.715 24.084C104.1 24.084 103.533 24.2158 103.016 24.4795C102.498 24.7334 102.054 25.1143 101.683 25.6221C101.312 26.1299 101.023 26.75 100.818 27.4824C100.613 28.2148 100.511 29.0596 100.511 30.0166V30.6318C100.511 31.3838 100.613 32.0918 100.818 32.7559C101.033 33.4102 101.341 33.9863 101.741 34.4844C102.151 34.9824 102.645 35.373 103.221 35.6562C103.807 35.9395 104.471 36.0811 105.213 36.0811C106.17 36.0811 106.98 35.8857 107.645 35.4951C108.309 35.1045 108.89 34.582 109.388 33.9277L111.028 35.2314C110.687 35.749 110.252 36.2422 109.725 36.7109C109.197 37.1797 108.548 37.5605 107.776 37.8535C107.015 38.1465 106.111 38.293 105.066 38.293ZM130.115 29.6357H124.417V27.3359H130.115C131.219 27.3359 132.112 27.1602 132.796 26.8086C133.479 26.457 133.978 25.9688 134.29 25.3438C134.612 24.7188 134.773 24.0059 134.773 23.2051C134.773 22.4727 134.612 21.7842 134.29 21.1396C133.978 20.4951 133.479 19.9775 132.796 19.5869C132.112 19.1865 131.219 18.9863 130.115 18.9863H125.076V38H122.249V16.6719H130.115C131.727 16.6719 133.089 16.9502 134.202 17.5068C135.315 18.0635 136.16 18.835 136.736 19.8213C137.312 20.7979 137.601 21.916 137.601 23.1758C137.601 24.543 137.312 25.71 136.736 26.6768C136.16 27.6436 135.315 28.3809 134.202 28.8887C133.089 29.3867 131.727 29.6357 130.115 29.6357ZM143.709 15.5V38H140.984V15.5H143.709ZM157.405 35.29V27.1309C157.405 26.5059 157.278 25.9639 157.024 25.5049C156.78 25.0361 156.409 24.6748 155.911 24.4209C155.413 24.167 154.798 24.04 154.065 24.04C153.382 24.04 152.781 24.1572 152.264 24.3916C151.756 24.626 151.355 24.9336 151.062 25.3145C150.779 25.6953 150.638 26.1055 150.638 26.5449H147.928C147.928 25.9785 148.074 25.417 148.367 24.8604C148.66 24.3037 149.08 23.8008 149.627 23.3516C150.184 22.8926 150.848 22.5312 151.619 22.2676C152.4 21.9941 153.27 21.8574 154.227 21.8574C155.379 21.8574 156.395 22.0527 157.273 22.4434C158.162 22.834 158.855 23.4248 159.354 24.2158C159.861 24.9971 160.115 25.9785 160.115 27.1602V34.543C160.115 35.0703 160.159 35.6318 160.247 36.2275C160.345 36.8232 160.486 37.3359 160.672 37.7656V38H157.845C157.708 37.6875 157.601 37.2725 157.522 36.7549C157.444 36.2275 157.405 35.7393 157.405 35.29ZM157.874 28.3906L157.903 30.2949H155.164C154.393 30.2949 153.704 30.3584 153.099 30.4854C152.493 30.6025 151.985 30.7832 151.575 31.0273C151.165 31.2715 150.853 31.5791 150.638 31.9502C150.423 32.3115 150.315 32.7363 150.315 33.2246C150.315 33.7227 150.428 34.1768 150.652 34.5869C150.877 34.9971 151.214 35.3242 151.663 35.5684C152.122 35.8027 152.684 35.9199 153.348 35.9199C154.178 35.9199 154.91 35.7441 155.545 35.3926C156.18 35.041 156.683 34.6113 157.054 34.1035C157.435 33.5957 157.64 33.1025 157.669 32.624L158.826 33.9277C158.758 34.3379 158.572 34.792 158.27 35.29C157.967 35.7881 157.562 36.2666 157.054 36.7256C156.556 37.1748 155.96 37.5508 155.267 37.8535C154.583 38.1465 153.812 38.293 152.952 38.293C151.878 38.293 150.936 38.083 150.125 37.6631C149.324 37.2432 148.699 36.6816 148.25 35.9785C147.811 35.2656 147.591 34.4697 147.591 33.5908C147.591 32.7412 147.757 31.9941 148.089 31.3496C148.421 30.6953 148.899 30.1533 149.524 29.7236C150.149 29.2842 150.901 28.9521 151.78 28.7275C152.659 28.5029 153.641 28.3906 154.725 28.3906H157.874ZM167.088 25.5342V38H164.378V22.1504H166.941L167.088 25.5342ZM166.443 29.4746L165.315 29.4307C165.325 28.3467 165.486 27.3457 165.799 26.4277C166.111 25.5 166.551 24.6943 167.117 24.0107C167.684 23.3271 168.357 22.7998 169.139 22.4287C169.93 22.0479 170.804 21.8574 171.761 21.8574C172.542 21.8574 173.245 21.9648 173.87 22.1797C174.495 22.3848 175.027 22.7168 175.467 23.1758C175.916 23.6348 176.258 24.2305 176.492 24.9629C176.727 25.6855 176.844 26.5693 176.844 27.6143V38H174.119V27.585C174.119 26.7549 173.997 26.0908 173.753 25.5928C173.509 25.085 173.152 24.7188 172.684 24.4941C172.215 24.2598 171.639 24.1426 170.955 24.1426C170.281 24.1426 169.666 24.2842 169.109 24.5674C168.562 24.8506 168.089 25.2412 167.688 25.7393C167.298 26.2373 166.99 26.8086 166.766 27.4531C166.551 28.0879 166.443 28.7617 166.443 29.4746ZM183.67 25.5342V38H180.96V22.1504H183.523L183.67 25.5342ZM183.025 29.4746L181.897 29.4307C181.907 28.3467 182.068 27.3457 182.381 26.4277C182.693 25.5 183.133 24.6943 183.699 24.0107C184.266 23.3271 184.939 22.7998 185.721 22.4287C186.512 22.0479 187.386 21.8574 188.343 21.8574C189.124 21.8574 189.827 21.9648 190.452 22.1797C191.077 22.3848 191.609 22.7168 192.049 23.1758C192.498 23.6348 192.84 24.2305 193.074 24.9629C193.309 25.6855 193.426 26.5693 193.426 27.6143V38H190.701V27.585C190.701 26.7549 190.579 26.0908 190.335 25.5928C190.091 25.085 189.734 24.7188 189.266 24.4941C188.797 24.2598 188.221 24.1426 187.537 24.1426C186.863 24.1426 186.248 24.2842 185.691 24.5674C185.145 24.8506 184.671 25.2412 184.271 25.7393C183.88 26.2373 183.572 26.8086 183.348 27.4531C183.133 28.0879 183.025 28.7617 183.025 29.4746ZM204.119 38.293C203.016 38.293 202.015 38.1074 201.116 37.7363C200.228 37.3555 199.461 36.8232 198.816 36.1396C198.182 35.4561 197.693 34.6455 197.352 33.708C197.01 32.7705 196.839 31.7451 196.839 30.6318V30.0166C196.839 28.7275 197.029 27.5801 197.41 26.5742C197.791 25.5586 198.309 24.6992 198.963 23.9961C199.617 23.293 200.359 22.7607 201.189 22.3994C202.02 22.0381 202.879 21.8574 203.768 21.8574C204.9 21.8574 205.877 22.0527 206.697 22.4434C207.527 22.834 208.206 23.3809 208.733 24.084C209.261 24.7773 209.651 25.5977 209.905 26.5449C210.159 27.4824 210.286 28.5078 210.286 29.6211V30.8369H198.45V28.625H207.576V28.4199C207.537 27.7168 207.391 27.0332 207.137 26.3691C206.893 25.7051 206.502 25.1582 205.965 24.7285C205.428 24.2988 204.695 24.084 203.768 24.084C203.152 24.084 202.586 24.2158 202.068 24.4795C201.551 24.7334 201.106 25.1143 200.735 25.6221C200.364 26.1299 200.076 26.75 199.871 27.4824C199.666 28.2148 199.563 29.0596 199.563 30.0166V30.6318C199.563 31.3838 199.666 32.0918 199.871 32.7559C200.086 33.4102 200.394 33.9863 200.794 34.4844C201.204 34.9824 201.697 35.373 202.273 35.6562C202.859 35.9395 203.523 36.0811 204.266 36.0811C205.223 36.0811 206.033 35.8857 206.697 35.4951C207.361 35.1045 207.942 34.582 208.44 33.9277L210.081 35.2314C209.739 35.749 209.305 36.2422 208.777 36.7109C208.25 37.1797 207.601 37.5605 206.829 37.8535C206.067 38.1465 205.164 38.293 204.119 38.293ZM216.16 24.6406V38H213.45V22.1504H216.087L216.16 24.6406ZM221.111 22.0625L221.097 24.582C220.872 24.5332 220.657 24.5039 220.452 24.4941C220.257 24.4746 220.032 24.4648 219.778 24.4648C219.153 24.4648 218.602 24.5625 218.123 24.7578C217.645 24.9531 217.239 25.2266 216.907 25.5781C216.575 25.9297 216.312 26.3496 216.116 26.8379C215.931 27.3164 215.809 27.8438 215.75 28.4199L214.988 28.8594C214.988 27.9023 215.081 27.0039 215.267 26.1641C215.462 25.3242 215.76 24.582 216.16 23.9375C216.561 23.2832 217.068 22.7754 217.684 22.4141C218.309 22.043 219.051 21.8574 219.91 21.8574C220.105 21.8574 220.33 21.8818 220.584 21.9307C220.838 21.9697 221.014 22.0137 221.111 22.0625ZM232.845 33.7959C232.845 33.4053 232.757 33.0439 232.581 32.7119C232.415 32.3701 232.068 32.0625 231.541 31.7891C231.023 31.5059 230.242 31.2617 229.197 31.0566C228.318 30.8711 227.522 30.6514 226.81 30.3975C226.106 30.1436 225.506 29.8359 225.008 29.4746C224.52 29.1133 224.144 28.6885 223.88 28.2002C223.616 27.7119 223.484 27.1406 223.484 26.4863C223.484 25.8613 223.621 25.2705 223.895 24.7139C224.178 24.1572 224.573 23.6641 225.081 23.2344C225.599 22.8047 226.219 22.4678 226.941 22.2236C227.664 21.9795 228.47 21.8574 229.358 21.8574C230.628 21.8574 231.712 22.082 232.61 22.5312C233.509 22.9805 234.197 23.5811 234.676 24.333C235.154 25.0752 235.394 25.9004 235.394 26.8086H232.684C232.684 26.3691 232.552 25.9443 232.288 25.5342C232.034 25.1143 231.658 24.7676 231.16 24.4941C230.672 24.2207 230.071 24.084 229.358 24.084C228.606 24.084 227.996 24.2012 227.527 24.4355C227.068 24.6602 226.731 24.9482 226.517 25.2998C226.312 25.6514 226.209 26.0225 226.209 26.4131C226.209 26.7061 226.258 26.9697 226.355 27.2041C226.463 27.4287 226.648 27.6387 226.912 27.834C227.176 28.0195 227.547 28.1953 228.025 28.3613C228.504 28.5273 229.114 28.6934 229.856 28.8594C231.155 29.1523 232.225 29.5039 233.064 29.9141C233.904 30.3242 234.529 30.8271 234.939 31.4229C235.35 32.0186 235.555 32.7412 235.555 33.5908C235.555 34.2842 235.408 34.9189 235.115 35.4951C234.832 36.0713 234.417 36.5693 233.87 36.9893C233.333 37.3994 232.688 37.7217 231.937 37.9561C231.194 38.1807 230.359 38.293 229.432 38.293C228.035 38.293 226.854 38.0439 225.887 37.5459C224.92 37.0479 224.188 36.4033 223.689 35.6123C223.191 34.8213 222.942 33.9863 222.942 33.1074H225.667C225.706 33.8496 225.921 34.4404 226.312 34.8799C226.702 35.3096 227.181 35.6172 227.747 35.8027C228.313 35.9785 228.875 36.0664 229.432 36.0664C230.174 36.0664 230.794 35.9688 231.292 35.7734C231.8 35.5781 232.186 35.3096 232.449 34.9678C232.713 34.626 232.845 34.2354 232.845 33.7959ZM258.333 32.6094C258.333 32.1113 258.255 31.6719 258.099 31.291C257.952 30.9004 257.688 30.5488 257.308 30.2363C256.937 29.9238 256.419 29.626 255.755 29.3428C255.101 29.0596 254.271 28.7715 253.265 28.4785C252.21 28.166 251.258 27.8193 250.408 27.4385C249.559 27.0479 248.831 26.6035 248.226 26.1055C247.62 25.6074 247.156 25.0361 246.834 24.3916C246.512 23.7471 246.351 23.0098 246.351 22.1797C246.351 21.3496 246.521 20.583 246.863 19.8799C247.205 19.1768 247.693 18.5664 248.328 18.0488C248.973 17.5215 249.739 17.1113 250.628 16.8184C251.517 16.5254 252.508 16.3789 253.602 16.3789C255.203 16.3789 256.561 16.6865 257.674 17.3018C258.797 17.9072 259.651 18.7031 260.237 19.6895C260.823 20.666 261.116 21.7109 261.116 22.8242H258.304C258.304 22.0234 258.133 21.3154 257.791 20.7002C257.449 20.0752 256.932 19.5869 256.238 19.2354C255.545 18.874 254.666 18.6934 253.602 18.6934C252.596 18.6934 251.766 18.8447 251.111 19.1475C250.457 19.4502 249.969 19.8604 249.646 20.3779C249.334 20.8955 249.178 21.4863 249.178 22.1504C249.178 22.5996 249.271 23.0098 249.456 23.3809C249.651 23.7422 249.949 24.0791 250.35 24.3916C250.76 24.7041 251.277 24.9922 251.902 25.2559C252.537 25.5195 253.294 25.7734 254.173 26.0176C255.384 26.3594 256.429 26.7402 257.308 27.1602C258.187 27.5801 258.909 28.0537 259.476 28.5811C260.052 29.0986 260.477 29.6895 260.75 30.3535C261.033 31.0078 261.175 31.75 261.175 32.5801C261.175 33.4492 260.999 34.2354 260.647 34.9385C260.296 35.6416 259.793 36.2422 259.139 36.7402C258.484 37.2383 257.698 37.624 256.78 37.8975C255.872 38.1611 254.856 38.293 253.733 38.293C252.747 38.293 251.775 38.1562 250.818 37.8828C249.871 37.6094 249.007 37.1992 248.226 36.6523C247.454 36.1055 246.834 35.4316 246.365 34.6309C245.906 33.8203 245.677 32.8828 245.677 31.8184H248.489C248.489 32.5508 248.631 33.1807 248.914 33.708C249.197 34.2256 249.583 34.6553 250.071 34.9971C250.569 35.3389 251.131 35.5928 251.756 35.7588C252.391 35.915 253.05 35.9932 253.733 35.9932C254.72 35.9932 255.555 35.8564 256.238 35.583C256.922 35.3096 257.439 34.9189 257.791 34.4111C258.152 33.9033 258.333 33.3027 258.333 32.6094ZM271.004 22.1504V24.2305H262.435V22.1504H271.004ZM265.335 18.2979H268.045V34.0742C268.045 34.6113 268.128 35.0166 268.294 35.29C268.46 35.5635 268.675 35.7441 268.938 35.832C269.202 35.9199 269.485 35.9639 269.788 35.9639C270.013 35.9639 270.247 35.9443 270.491 35.9053C270.745 35.8564 270.936 35.8174 271.062 35.7881L271.077 38C270.862 38.0684 270.579 38.1318 270.228 38.1904C269.886 38.2588 269.471 38.293 268.982 38.293C268.318 38.293 267.708 38.1611 267.151 37.8975C266.595 37.6338 266.15 37.1943 265.818 36.5791C265.496 35.9541 265.335 35.1143 265.335 34.0596V18.2979ZM283.88 34.3379V22.1504H286.604V38H284.012L283.88 34.3379ZM284.393 30.998L285.521 30.9688C285.521 32.0234 285.408 33 285.184 33.8984C284.969 34.7871 284.617 35.5586 284.129 36.2129C283.641 36.8672 283.001 37.3799 282.21 37.751C281.419 38.1123 280.457 38.293 279.324 38.293C278.553 38.293 277.845 38.1807 277.2 37.9561C276.565 37.7314 276.019 37.3848 275.56 36.916C275.101 36.4473 274.744 35.8369 274.49 35.085C274.246 34.333 274.124 33.4297 274.124 32.375V22.1504H276.834V32.4043C276.834 33.1172 276.912 33.708 277.068 34.1768C277.234 34.6357 277.454 35.002 277.728 35.2754C278.011 35.5391 278.323 35.7246 278.665 35.832C279.017 35.9395 279.378 35.9932 279.749 35.9932C280.901 35.9932 281.814 35.7734 282.488 35.334C283.162 34.8848 283.646 34.2842 283.938 33.5322C284.241 32.7705 284.393 31.9258 284.393 30.998ZM300.726 34.9238V15.5H303.45V38H300.96L300.726 34.9238ZM290.062 30.251V29.9434C290.062 28.7324 290.208 27.6338 290.501 26.6475C290.804 25.6514 291.229 24.7969 291.775 24.084C292.332 23.3711 292.991 22.8242 293.753 22.4434C294.524 22.0527 295.384 21.8574 296.331 21.8574C297.327 21.8574 298.196 22.0332 298.938 22.3848C299.69 22.7266 300.325 23.2295 300.843 23.8936C301.37 24.5479 301.785 25.3389 302.088 26.2666C302.391 27.1943 302.601 28.2441 302.718 29.416V30.7637C302.61 31.9258 302.4 32.9707 302.088 33.8984C301.785 34.8262 301.37 35.6172 300.843 36.2715C300.325 36.9258 299.69 37.4287 298.938 37.7803C298.187 38.1221 297.308 38.293 296.302 38.293C295.374 38.293 294.524 38.0928 293.753 37.6924C292.991 37.292 292.332 36.7305 291.775 36.0078C291.229 35.2852 290.804 34.4355 290.501 33.459C290.208 32.4727 290.062 31.4033 290.062 30.251ZM292.786 29.9434V30.251C292.786 31.042 292.864 31.7842 293.021 32.4775C293.187 33.1709 293.44 33.7812 293.782 34.3086C294.124 34.8359 294.559 35.251 295.086 35.5537C295.613 35.8467 296.243 35.9932 296.976 35.9932C297.874 35.9932 298.611 35.8027 299.188 35.4219C299.773 35.041 300.242 34.5381 300.594 33.9131C300.945 33.2881 301.219 32.6094 301.414 31.877V28.3467C301.297 27.8096 301.126 27.292 300.901 26.7939C300.687 26.2861 300.403 25.8369 300.052 25.4463C299.71 25.0459 299.285 24.7285 298.777 24.4941C298.279 24.2598 297.688 24.1426 297.005 24.1426C296.263 24.1426 295.623 24.2988 295.086 24.6113C294.559 24.9141 294.124 25.334 293.782 25.8711C293.44 26.3984 293.187 27.0137 293.021 27.7168C292.864 28.4102 292.786 29.1523 292.786 29.9434ZM310.613 22.1504V38H307.889V22.1504H310.613ZM307.684 17.9463C307.684 17.5068 307.815 17.1357 308.079 16.833C308.353 16.5303 308.753 16.3789 309.28 16.3789C309.798 16.3789 310.193 16.5303 310.467 16.833C310.75 17.1357 310.892 17.5068 310.892 17.9463C310.892 18.3662 310.75 18.7275 310.467 19.0303C310.193 19.3232 309.798 19.4697 309.28 19.4697C308.753 19.4697 308.353 19.3232 308.079 19.0303C307.815 18.7275 307.684 18.3662 307.684 17.9463ZM314.246 30.251V29.9141C314.246 28.7715 314.412 27.7119 314.744 26.7354C315.076 25.749 315.555 24.8945 316.18 24.1719C316.805 23.4395 317.562 22.873 318.45 22.4727C319.339 22.0625 320.335 21.8574 321.438 21.8574C322.552 21.8574 323.553 22.0625 324.441 22.4727C325.34 22.873 326.102 23.4395 326.727 24.1719C327.361 24.8945 327.845 25.749 328.177 26.7354C328.509 27.7119 328.675 28.7715 328.675 29.9141V30.251C328.675 31.3936 328.509 32.4531 328.177 33.4297C327.845 34.4062 327.361 35.2607 326.727 35.9932C326.102 36.7158 325.345 37.2822 324.456 37.6924C323.577 38.0928 322.581 38.293 321.468 38.293C320.354 38.293 319.354 38.0928 318.465 37.6924C317.576 37.2822 316.814 36.7158 316.18 35.9932C315.555 35.2607 315.076 34.4062 314.744 33.4297C314.412 32.4531 314.246 31.3936 314.246 30.251ZM316.956 29.9141V30.251C316.956 31.042 317.049 31.7891 317.234 32.4922C317.42 33.1855 317.698 33.8008 318.069 34.3379C318.45 34.875 318.924 35.2998 319.49 35.6123C320.057 35.915 320.716 36.0664 321.468 36.0664C322.21 36.0664 322.859 35.915 323.416 35.6123C323.982 35.2998 324.451 34.875 324.822 34.3379C325.193 33.8008 325.472 33.1855 325.657 32.4922C325.853 31.7891 325.95 31.042 325.95 30.251V29.9141C325.95 29.1328 325.853 28.3955 325.657 27.7021C325.472 26.999 325.188 26.3789 324.808 25.8418C324.437 25.2949 323.968 24.8652 323.401 24.5527C322.845 24.2402 322.19 24.084 321.438 24.084C320.696 24.084 320.042 24.2402 319.476 24.5527C318.919 24.8652 318.45 25.2949 318.069 25.8418C317.698 26.3789 317.42 26.999 317.234 27.7021C317.049 28.3955 316.956 29.1328 316.956 29.9141Z" fill="black"/>
<path d="M5.73779 41.6236H45.7378" stroke="black" stroke-linecap="round"/>
<path d="M5.80347 38H45.8035" stroke="black" stroke-linecap="round"/>
<path d="M20.8035 8L45.3375 21.4937" stroke="black" stroke-linecap="round"/>
<path d="M20.8035 13L45.3375 26.4937" stroke="black" stroke-linecap="round"/>
<path d="M5.76929 23.2578V41.5317" stroke="black" stroke-linecap="round"/>
<path d="M31.8035 1V41" stroke="black" stroke-linecap="round"/>
<path d="M36.8035 8V49" stroke="black" stroke-linecap="round"/>
<path d="M9.80347 20V41" stroke="black" stroke-linecap="round"/>
<path d="M1.80347 20V25" stroke="black" stroke-linecap="round"/>
<path d="M20.8035 8V13" stroke="black" stroke-linecap="round"/>
<path d="M1.80347 25L20.8035 13" stroke="black" stroke-linecap="round"/>
<path d="M1.80347 20L20.8035 8" stroke="black" stroke-linecap="round"/>
<rect x="17.8035" y="31" width="6" height="11" fill="black"/>
<rect x="5.80347" y="38" width="18" height="4" fill="black"/>
<rect x="5.80347" y="21" width="4" height="17" fill="black"/>
<path d="M20.7969 8.50001L20.7971 12.8237L2.25492 25L2.25503 20L20.7969 8.50001Z" fill="black"/>
</svg>
